<svg width="41" height="40" viewBox="0 0 41 40" fill="none" xmlns="http://www.w3.org/2000/svg">
<rect x="0.330078" width="40" height="40" rx="20" fill="#EDF9FF"/>
<path d="M20.3301 30C25.8529 30 30.3301 25.5228 30.3301 20C30.3301 14.4772 25.8529 10 20.3301 10C14.8072 10 10.3301 14.4772 10.3301 20C10.3301 25.5228 14.8072 30 20.3301 30Z" stroke="#00AEEF" stroke-width="1.5"/>
<path d="M20.3301 30C22.5392 30 24.3301 25.5228 24.3301 20C24.3301 14.4772 22.5392 10 20.3301 10C18.1209 10 16.3301 14.4772 16.3301 20C16.3301 25.5228 18.1209 30 20.3301 30Z" stroke="#00AEEF" stroke-width="1.5"/>
<path d="M11.3301 15C16.8382 17.6667 23.822 17.6667 29.3301 15" stroke="#00AEEF" stroke-width="1.5" stroke-linejoin="round"/>
<path d="M29.3301 25C23.822 22.3333 16.8382 22.3333 11.3301 25" stroke="#00AEEF" stroke-width="1.5" stroke-linejoin="round"/>
</svg>
