<svg width="41" height="40" viewBox="0 0 41 40" fill="none" xmlns="http://www.w3.org/2000/svg">
<rect x="0.660156" width="40" height="40" rx="20" fill="#EDF9FF"/>
<path d="M23.6602 20H15.6602C14.7308 20 14.2662 20 13.8798 20.0769C12.293 20.3925 11.0526 21.6329 10.737 23.2196C10.6602 23.606 10.6602 24.0707 10.6602 25C10.6602 25.9293 10.6602 26.394 10.737 26.7804C11.0526 28.3671 12.293 29.6075 13.8798 29.9231C14.2662 30 14.7308 30 15.6602 30H25.6602C26.5895 30 27.0542 30 27.4406 29.9231C29.0273 29.6075 30.2677 28.3671 30.5833 26.7804C30.6602 26.394 30.6602 25.9293 30.6602 25V22.5C30.6602 21.1193 29.5409 20 28.1602 20" stroke="#00AEEF" stroke-width="1.5" stroke-linecap="round"/>
<path d="M10.6602 24V18C10.6602 15.7909 12.451 14 14.6602 14H23.6601" stroke="#00AEEF" stroke-width="1.5"/>
<path d="M22.9102 14C22.9102 14.4142 23.246 14.75 23.6602 14.75C24.0744 14.75 24.4102 14.4142 24.4102 14H22.9102ZM23.9834 11.3839L29.4228 16.8232L30.4834 15.7625L25.0441 10.3232L23.9834 11.3839ZM29.4228 17.1768L23.9834 22.6161L25.0441 23.6768L30.4834 18.2374L29.4228 17.1768ZM24.4102 14V11.2071H22.9102V14H24.4102ZM24.4102 22.7929V20H22.9102V22.7929H24.4102ZM29.4228 16.8232C29.5204 16.9209 29.5204 17.0791 29.4228 17.1768L30.4834 18.2374C31.1668 17.554 31.1668 16.446 30.4834 15.7625L29.4228 16.8232ZM23.9834 22.6161C24.1409 22.4586 24.4102 22.5702 24.4102 22.7929H22.9102C22.9102 23.9065 24.2566 24.4642 25.0441 23.6768L23.9834 22.6161ZM25.0441 10.3232C24.2566 9.53576 22.9102 10.0935 22.9102 11.2071H24.4102C24.4102 11.4298 24.1409 11.5414 23.9834 11.3839L25.0441 10.3232Z" fill="#00AEEF"/>
<path d="M27.6602 26C28.2124 26 28.6602 25.5523 28.6602 25C28.6602 24.4477 28.2124 24 27.6602 24C27.1079 24 26.6602 24.4477 26.6602 25C26.6602 25.5523 27.1079 26 27.6602 26Z" fill="#00AEEF"/>
</svg>
