<svg width="41" height="40" viewBox="0 0 41 40" fill="none" xmlns="http://www.w3.org/2000/svg">
<rect x="0.330078" width="40" height="40" rx="20" fill="#EDF9FF"/>
<path d="M13.3301 20V16C13.3301 14.3431 14.6732 13 16.3301 13H23.3301" stroke="#00AEEF" stroke-width="1.5"/>
<path d="M22.5801 13C22.5801 13.4142 22.9159 13.75 23.3301 13.75C23.7443 13.75 24.0801 13.4142 24.0801 13H22.5801ZM23.6473 10.4391L29.145 16.3294L30.2416 15.3059L24.7439 9.41561L23.6473 10.4391ZM29.145 16.6706L23.6473 22.5609L24.7439 23.5844L30.2416 17.6941L29.145 16.6706ZM24.0801 13V10.2685H22.5801V13H24.0801ZM24.0801 22.7315V20H22.5801V22.7315H24.0801ZM29.145 16.3294C29.2346 16.4255 29.2346 16.5745 29.145 16.6706L30.2416 17.6941C30.8691 17.0217 30.8691 15.9783 30.2416 15.3059L29.145 16.3294ZM23.6473 22.5609C23.8022 22.395 24.0801 22.5046 24.0801 22.7315H22.5801C22.5801 23.866 23.9698 24.4138 24.7439 23.5844L23.6473 22.5609ZM24.7439 9.41561C23.9698 8.58621 22.5801 9.13398 22.5801 10.2685H24.0801C24.0801 10.4954 23.8022 10.605 23.6473 10.4391L24.7439 9.41561Z" fill="#00AEEF"/>
<path d="M18.0804 27C18.0804 26.5858 17.7446 26.25 17.3304 26.25C16.9161 26.25 16.5804 26.5858 16.5804 27H18.0804ZM17.0131 29.5609L11.5155 23.6706L10.4189 24.6941L15.9165 30.5844L17.0131 29.5609ZM11.5155 23.3294L17.0131 17.4391L15.9165 16.4156L10.4189 22.3059L11.5155 23.3294ZM16.5804 27V29.7315H18.0804V27H16.5804ZM16.5804 17.2685V20H18.0804V17.2685H16.5804ZM11.5155 23.6706C11.4258 23.5745 11.4258 23.4255 11.5155 23.3294L10.4189 22.3059C9.79136 22.9783 9.79136 24.0217 10.4189 24.6941L11.5155 23.6706ZM17.0131 17.4391C16.8583 17.605 16.5804 17.4954 16.5804 17.2685H18.0804C18.0804 16.134 16.6906 15.5862 15.9165 16.4156L17.0131 17.4391ZM15.9165 30.5844C16.6906 31.4138 18.0804 30.866 18.0804 29.7315H16.5804C16.5804 29.5046 16.8583 29.395 17.0131 29.5609L15.9165 30.5844Z" fill="#00AEEF"/>
<path d="M27.3301 20V24C27.3301 25.6569 25.987 27 24.3301 27H17.3301" stroke="#00AEEF" stroke-width="1.5"/>
<path d="M17.3301 20H23.3301" stroke="#00AEEF" stroke-width="1.5" stroke-linecap="round"/>
</svg>
