<svg width="41" height="40" viewBox="0 0 41 40" fill="none" xmlns="http://www.w3.org/2000/svg">
<rect x="0.330078" width="40" height="40" rx="20" fill="#EDF9FF"/>
<path d="M22.3301 10H18.3301C16.1209 10 14.3301 11.7909 14.3301 14V26C14.3301 28.2091 16.1209 30 18.3301 30H22.3301C24.5392 30 26.3301 28.2091 26.3301 26V14C26.3301 11.7909 24.5392 10 22.3301 10Z" stroke="#00AEEF" stroke-width="1.5"/>
<path d="M20.3301 28C20.8824 28 21.3301 27.5523 21.3301 27C21.3301 26.4477 20.8824 26 20.3301 26C19.7778 26 19.3301 26.4477 19.3301 27C19.3301 27.5523 19.7778 28 20.3301 28Z" fill="#00AEEF"/>
<path d="M18.3301 13H22.3301" stroke="#00AEEF" stroke-width="1.5" stroke-linecap="round"/>
</svg>
