<svg width="40" height="40" viewBox="0 0 40 40" fill="none" xmlns="http://www.w3.org/2000/svg">
<rect width="40" height="40" rx="20" fill="#EDF9FF"/>
<path d="M27.0709 12.9289C26.1423 12.0003 25.0399 11.2637 23.8266 10.7612C22.6134 10.2587 21.313 10 19.9998 10C18.6866 10 17.3862 10.2587 16.1729 10.7612C14.9597 11.2637 13.8573 12.0003 12.9287 12.9289L16.8178 16.818C17.2357 16.4002 17.7317 16.0687 18.2777 15.8425C18.8237 15.6164 19.4089 15.5 19.9998 15.5C20.5907 15.5 21.1759 15.6164 21.7219 15.8425C22.2678 16.0687 22.7639 16.4002 23.1818 16.818L27.0709 12.9289Z" stroke="#00AEEF" stroke-width="1.5"/>
<path d="M12.9287 27.0711C13.8573 27.9997 14.9597 28.7362 16.173 29.2388C17.3862 29.7413 18.6866 30 19.9998 30C21.313 30 22.6134 29.7413 23.8266 29.2388C25.0399 28.7362 26.1423 27.9997 27.0709 27.0711L23.1818 23.182C22.7639 23.5998 22.2678 23.9313 21.7219 24.1575C21.1759 24.3836 20.5907 24.5 19.9998 24.5C19.4089 24.5 18.8237 24.3836 18.2777 24.1575C17.7317 23.9313 17.2357 23.5998 16.8178 23.182L12.9287 27.0711Z" stroke="#00AEEF" stroke-width="1.5"/>
<path d="M12.9289 12.929C12.0003 13.8575 11.2637 14.9599 10.7612 16.1732C10.2587 17.3864 10 18.6868 10 20C10 21.3132 10.2587 22.6136 10.7612 23.8268C11.2637 25.0401 12.0003 26.1425 12.9289 27.0711L16.818 23.182C16.4002 22.7641 16.0687 22.268 15.8425 21.7221C15.6164 21.1761 15.5 20.5909 15.5 20C15.5 19.4091 15.6164 18.8239 15.8425 18.2779C16.0687 17.732 16.4001 17.2359 16.818 16.818L12.9289 12.929Z" stroke="#00AEEF" stroke-width="1.5"/>
<path d="M27.0707 27.0711C27.9993 26.1425 28.7358 25.0401 29.2384 23.8268C29.7409 22.6136 29.9996 21.3132 29.9996 20C29.9996 18.6868 29.7409 17.3864 29.2384 16.1732C28.7358 14.9599 27.9993 13.8575 27.0707 12.929L23.1816 16.818C23.5994 17.2359 23.9309 17.732 24.1571 18.2779C24.3832 18.8239 24.4996 19.4091 24.4996 20C24.4996 20.5909 24.3832 21.1761 24.1571 21.7221C23.9309 22.268 23.5994 22.7641 23.1816 23.182L27.0707 27.0711Z" stroke="#00AEEF" stroke-width="1.5"/>
</svg>
