<svg width="41" height="40" viewBox="0 0 41 40" fill="none" xmlns="http://www.w3.org/2000/svg">
<rect x="0.330078" width="40" height="40" rx="20" fill="#EDF9FF"/>
<path d="M27.401 12.9289C26.4724 12.0003 25.37 11.2637 24.1567 10.7612C22.9435 10.2587 21.6431 10 20.3299 10C19.0167 10 17.7163 10.2587 16.503 10.7612C15.2898 11.2637 14.1874 12.0003 13.2588 12.9289L17.1479 16.818C17.5657 16.4002 18.0618 16.0687 18.6078 15.8425C19.1538 15.6164 19.739 15.5 20.3299 15.5C20.9208 15.5 21.506 15.6164 22.052 15.8425C22.5979 16.0687 23.094 16.4002 23.5119 16.818L27.401 12.9289Z" stroke="#00AEEF" stroke-width="1.5"/>
<path d="M13.2588 27.0711C14.1874 27.9997 15.2898 28.7362 16.503 29.2388C17.7163 29.7413 19.0167 30 20.3299 30C21.6431 30 22.9435 29.7413 24.1567 29.2388C25.37 28.7362 26.4724 27.9997 27.401 27.0711L23.5119 23.182C23.094 23.5998 22.5979 23.9313 22.052 24.1575C21.506 24.3836 20.9208 24.5 20.3299 24.5C19.739 24.5 19.1538 24.3836 18.6078 24.1575C18.0618 23.9313 17.5657 23.5998 17.1479 23.182L13.2588 27.0711Z" stroke="#00AEEF" stroke-width="1.5"/>
<path d="M13.259 12.929C12.3304 13.8575 11.5938 14.9599 11.0913 16.1732C10.5887 17.3864 10.3301 18.6868 10.3301 20C10.3301 21.3132 10.5887 22.6136 11.0913 23.8268C11.5938 25.0401 12.3304 26.1425 13.259 27.0711L17.1481 23.182C16.7302 22.7641 16.3988 22.268 16.1726 21.7221C15.9465 21.1761 15.8301 20.5909 15.8301 20C15.8301 19.4091 15.9465 18.8239 16.1726 18.2779C16.3988 17.732 16.7302 17.2359 17.1481 16.818L13.259 12.929Z" stroke="#00AEEF" stroke-width="1.5"/>
<path d="M27.4008 27.0711C28.3294 26.1425 29.0659 25.0401 29.5685 23.8268C30.071 22.6136 30.3297 21.3132 30.3297 20C30.3297 18.6868 30.071 17.3864 29.5685 16.1732C29.0659 14.9599 28.3294 13.8575 27.4008 12.929L23.5117 16.818C23.9295 17.2359 24.261 17.732 24.4872 18.2779C24.7133 18.8239 24.8297 19.4091 24.8297 20C24.8297 20.5909 24.7133 21.1761 24.4872 21.7221C24.261 22.268 23.9295 22.7641 23.5117 23.182L27.4008 27.0711Z" stroke="#00AEEF" stroke-width="1.5"/>
</svg>
