<svg width="24" height="25" viewBox="0 0 24 25" fill="none" xmlns="http://www.w3.org/2000/svg">
<path d="M23.8303 10.4583C23.9246 10.4583 23.9906 10.3721 23.9906 10.2644V7.41076C23.9906 6.86155 23.6039 6.42004 23.123 6.42004H0.867585C0.38664 6.42004 0 6.86155 0 7.41076V10.2644C0 10.3721 0.0754417 10.4475 0.160315 10.4583C1.20707 10.5552 2.0275 11.5566 2.0275 12.7735C2.0275 13.9903 1.20707 14.9919 0.160315 15.0888C0.0660118 15.0888 0 15.1749 0 15.2826V18.1794C0 18.7285 0.38664 19.17 0.867585 19.17H23.1324C23.6134 19.17 24 18.7285 24 18.1794V15.2826C24 15.1749 23.9245 15.0995 23.8396 15.0888C22.7929 14.9919 21.9725 13.9903 21.9725 12.7735C21.9725 11.5566 22.7929 10.5552 23.8396 10.4583H23.8303Z" fill="#EAEDF3"/>
<path d="M12.281 9.59954L12.9689 11.0593C13.0148 11.155 13.0951 11.2149 13.1983 11.2388L14.7348 11.4661C14.9871 11.5021 15.0903 11.8252 14.9068 12.0166L13.7945 13.1533C13.7258 13.2251 13.6913 13.3328 13.7028 13.4405L13.9666 15.0439C14.0124 15.3071 13.7487 15.5105 13.5194 15.3789L12.1433 14.6251C12.0516 14.5772 11.9484 14.5772 11.8567 14.6251L10.4807 15.3789C10.2513 15.4985 9.99908 15.3071 10.0334 15.0439L10.2972 13.4405C10.3087 13.3328 10.2857 13.2251 10.2055 13.1533L9.09323 12.0166C8.90971 11.8371 9.01291 11.5141 9.26521 11.4661L10.8017 11.2388C10.9049 11.2269 10.9852 11.155 11.0311 11.0593L11.7191 9.59954C11.8337 9.36021 12.1548 9.36021 12.2695 9.59954H12.281Z" fill="#ABBAC8"/>
</svg>
