<svg width="24" height="25" viewBox="0 0 24 25" fill="none" xmlns="http://www.w3.org/2000/svg">
<path d="M17.5827 2.92218L18.7216 3.57976C19.4622 4.00733 19.7159 4.95431 19.2884 5.69489L10.4565 20.9922C10.0289 21.7328 9.08192 21.9865 8.34134 21.5589L7.20239 20.9014L17.5827 2.92218Z" fill="#ABBAC8"/>
<path d="M5.40284 19.1026C5.61663 18.7324 6.09012 18.6055 6.46041 18.8192L8.62937 20.0715C8.99966 20.2853 9.12652 20.7587 8.91274 21.129L7.53929 23.508C7.3255 23.8783 6.85201 24.0051 6.48171 23.7913L4.31277 22.5391C3.94247 22.3253 3.8156 21.8518 4.02939 21.4815L5.40284 19.1026Z" fill="#ABBAC8"/>
<path d="M5.43151 19.0521L8.23943 20.6733L6.83681 23.1027C6.62303 23.4729 6.14954 23.5998 5.77925 23.386L4.31228 22.5391C3.94198 22.3253 3.81511 21.8518 4.0289 21.4815L5.43151 19.0521Z" fill="#ABBAC8"/>
<path d="M13.0901 2.11521C13.5177 1.37463 14.4647 1.12089 15.2053 1.54846L17.4831 2.8636C18.2237 3.29118 18.4775 4.23816 18.0499 4.97874L9.21802 20.276C8.79044 21.0166 7.84346 21.2704 7.10288 20.8428L4.82499 19.5276C4.08441 19.1001 3.83066 18.1531 4.25824 17.4125L13.0901 2.11521Z" fill="#EAEEF4"/>
</svg>
