<svg width="16" height="16" viewBox="0 0 16 16" fill="none" xmlns="http://www.w3.org/2000/svg">
<path d="M4.46998 3.98602C4.46998 1.76928 6.26128 0 8.46998 0C10.6787 0 12.47 1.78326 12.47 4C12.47 6.21675 10.6787 8 8.46998 8C6.26128 8 4.46998 6.20275 4.46998 3.98602ZM8.46998 1C6.82373 1 5.46998 2.4164 5.46998 4C5.46998 5.5836 6.82373 7 8.46998 7C10.1162 7 11.47 5.5836 11.47 4C11.47 2.4164 10.1162 1 8.46998 1ZM0.96998 15C1.26625 11.636 4.6013 9.25 8.46998 9.25C12.3387 9.25 15.6737 11.636 15.97 15C16.0183 15.5485 15.72 16 14.97 16H1.96998C1.21998 16 0.921675 15.5485 0.96998 15ZM1.96998 15H14.97C14.6081 12.4642 11.8633 10.25 8.46998 10.25C5.07666 10.25 2.33187 12.4642 1.96998 15Z" fill="#00AEEF"/>
</svg>
