<svg width="24" height="25" viewBox="0 0 24 25" fill="none" xmlns="http://www.w3.org/2000/svg">
<path d="M0.160001 19.281C0.0716351 19.281 6.50382e-07 19.2093 6.4652e-07 19.121L0 4.33035C-3.8624e-09 4.24198 0.0716344 4.17035 0.16 4.17035H1.0541V19.041C1.0541 19.1736 0.946649 19.281 0.814105 19.281H0.160001Z" fill="#EAEEF4"/>
<path d="M23.2024 19.281C23.2908 19.281 23.3624 19.2093 23.3624 19.121V4.33035C23.3624 4.24198 23.2908 4.17035 23.2024 4.17035H22.3083V19.041C22.3083 19.1736 22.4158 19.281 22.5483 19.281H23.2024Z" fill="#EAEEF4"/>
<path d="M0.667236 19.281V4.17035H1.42071C1.50908 4.17035 1.58071 4.24198 1.58071 4.33035V18.481C1.58071 18.9229 1.22254 19.281 0.780713 19.281H0.667236Z" fill="#ABBAC8"/>
<path d="M22.6938 19.281V4.17035H21.9403C21.852 4.17035 21.7803 4.24198 21.7803 4.33035V18.481C21.7803 18.9229 22.1385 19.281 22.5803 19.281H22.6938Z" fill="#ABBAC8"/>
<path d="M1.10791 17.7527H22.1835V20.0094C22.1835 20.4512 21.8253 20.8094 21.3835 20.8094H1.90791C1.46608 20.8094 1.10791 20.4512 1.10791 20.0094V17.7527Z" fill="#EAEEF4"/>
<path d="M22.1845 17.7527H1.10889L1.73213 15.7827C1.83736 15.45 2.146 15.2239 2.49487 15.2239H20.7985C21.1474 15.2239 21.456 15.45 21.5612 15.7827L22.1845 17.7527Z" fill="#ABBAC8"/>
<path d="M17.0911 18.371H16.0257C15.9374 18.371 15.8657 18.4427 15.8657 18.531V20.031C15.8657 20.1194 15.9374 20.191 16.0257 20.191H17.0911C17.1794 20.191 17.2511 20.1194 17.2511 20.031V18.531C17.2511 18.4427 17.1794 18.371 17.0911 18.371Z" fill="#ABBAC8"/>
<path d="M20.298 18.371H12.8883C12.7999 18.371 12.7283 18.4427 12.7283 18.531V20.031C12.7283 20.1194 12.7999 20.191 12.8883 20.191H20.298C20.3863 20.191 20.458 20.1194 20.458 20.031V18.531C20.458 18.4427 20.3863 18.371 20.298 18.371Z" fill="#ABBAC8"/>
<path d="M18.877 18.371H17.8116C17.7232 18.371 17.6516 18.4427 17.6516 18.531V20.031C17.6516 20.1194 17.7232 20.191 17.8116 20.191H18.877C18.9653 20.191 19.037 20.1194 19.037 20.031V18.531C19.037 18.4427 18.9653 18.371 18.877 18.371Z" fill="#ABBAC8"/>
<path d="M20.6629 18.371H19.5975C19.5091 18.371 19.4375 18.4427 19.4375 18.531V20.031C19.4375 20.1194 19.5091 20.191 19.5975 20.191H20.6629C20.7512 20.191 20.8229 20.1194 20.8229 20.031V18.531C20.8229 18.4427 20.7512 18.371 20.6629 18.371Z" fill="#ABBAC8"/>
</svg>
