<svg width="24" height="25" viewBox="0 0 24 25" fill="none" xmlns="http://www.w3.org/2000/svg">
<path d="M0 18.39C0 19.1697 0.632069 19.8018 1.41176 19.8018H19.8858C20.2602 19.8018 20.6193 19.6531 20.8841 19.3883L23.5865 16.6859C23.8513 16.4211 24 16.062 24 15.6876V6.39004C24 5.61034 23.368 4.97827 22.5882 4.97827H1.41176C0.632068 4.97827 0 5.61034 0 6.39004V18.39Z" fill="#EAEEF4"/>
<path d="M12.8741 9.9122C12.8741 9.79525 12.7793 9.70044 12.6624 9.70044H9.79233C9.67537 9.70044 9.58057 9.79525 9.58057 9.9122V12.1789C9.58057 12.2959 9.67537 12.3907 9.79233 12.3907H12.6624C12.7793 12.3907 12.8741 12.2959 12.8741 12.1789V9.9122Z" fill="#ABBAC8"/>
<path d="M12.8741 13.029C12.8741 12.9121 12.7793 12.8173 12.6624 12.8173H9.79233C9.67537 12.8173 9.58057 12.9121 9.58057 13.029V15.2958C9.58057 15.4127 9.67537 15.5075 9.79233 15.5075H12.6624C12.7793 15.5075 12.8741 15.4127 12.8741 15.2958V13.029Z" fill="#ABBAC8"/>
<path d="M12.8741 16.7982C12.8741 17.578 12.2421 18.21 11.4624 18.21H9.79233C9.67537 18.21 9.58057 18.1152 9.58057 17.9982V16.1458C9.58057 16.0288 9.67537 15.934 9.79233 15.934H12.6624C12.7793 15.934 12.8741 16.0288 12.8741 16.1458V16.7982Z" fill="#ABBAC8"/>
<path d="M2.11768 7.99502C2.11768 7.21532 2.74974 6.58325 3.52944 6.58325H5.19945C5.3164 6.58325 5.41122 6.67807 5.41122 6.79502V9.06175C5.41122 9.1787 5.3164 9.27351 5.19945 9.27351H2.32944C2.21248 9.27351 2.11768 9.1787 2.11768 9.06175V7.99502Z" fill="#ABBAC8"/>
<path d="M2.11768 9.91202C2.11768 9.79507 2.21248 9.70026 2.32944 9.70026H5.19945C5.3164 9.70026 5.41122 9.79507 5.41122 9.91202V12.1788C5.41122 12.2957 5.3164 12.3905 5.19945 12.3905H2.32944C2.21248 12.3905 2.11768 12.2957 2.11768 12.1788V9.91202Z" fill="#ABBAC8"/>
<path d="M2.11768 13.0288C2.11768 12.9119 2.21248 12.8171 2.32944 12.8171H5.19945C5.3164 12.8171 5.41122 12.9119 5.41122 13.0288V15.2956C5.41122 15.4125 5.3164 15.5073 5.19945 15.5073H2.32944C2.21248 15.5073 2.11768 15.4125 2.11768 15.2956V13.0288Z" fill="#ABBAC8"/>
<path d="M2.11768 16.798C2.11768 17.5777 2.74974 18.2097 3.52944 18.2097H5.19945C5.3164 18.2097 5.41122 18.1149 5.41122 17.998V16.1456C5.41122 16.0286 5.3164 15.9338 5.19945 15.9338H2.32944C2.21248 15.9338 2.11768 16.0286 2.11768 16.1456V16.798Z" fill="#ABBAC8"/>
<path d="M5.8125 6.78208C5.8125 6.66512 5.90731 6.57031 6.02426 6.57031H11.4614C12.2411 6.57031 12.8732 7.20238 12.8732 7.98208V9.1183C12.8732 9.23526 12.7784 9.33007 12.6614 9.33007H9.45557C9.33861 9.33007 9.24381 9.42488 9.24381 9.54183V12.3901V17.9982C9.24381 18.1152 9.14901 18.21 9.03204 18.21H6.02426C5.90731 18.21 5.8125 18.1152 5.8125 17.9982V6.78208Z" fill="#ABBAC8"/>
</svg>
