<svg width="41" height="40" viewBox="0 0 41 40" fill="none" xmlns="http://www.w3.org/2000/svg">
<rect x="0.660156" width="40" height="40" rx="20" fill="#EDF9FF"/>
<path d="M13.6602 20V16C13.6602 14.3431 15.0033 13 16.6602 13H23.6602" stroke="#00AEEF" stroke-width="1.5"/>
<path d="M22.9102 13C22.9102 13.4142 23.246 13.75 23.6602 13.75C24.0744 13.75 24.4102 13.4142 24.4102 13H22.9102ZM23.9774 10.4391L29.4751 16.3294L30.5717 15.3059L25.074 9.41561L23.9774 10.4391ZM29.4751 16.6706L23.9774 22.5609L25.074 23.5844L30.5717 17.6941L29.4751 16.6706ZM24.4102 13V10.2685H22.9102V13H24.4102ZM24.4102 22.7315V20H22.9102V22.7315H24.4102ZM29.4751 16.3294C29.5647 16.4255 29.5647 16.5745 29.4751 16.6706L30.5717 17.6941C31.1992 17.0217 31.1992 15.9783 30.5717 15.3059L29.4751 16.3294ZM23.9774 22.5609C24.1323 22.395 24.4102 22.5046 24.4102 22.7315H22.9102C22.9102 23.866 24.2999 24.4138 25.074 23.5844L23.9774 22.5609ZM25.074 9.41561C24.2999 8.58621 22.9102 9.13398 22.9102 10.2685H24.4102C24.4102 10.4954 24.1323 10.605 23.9774 10.4391L25.074 9.41561Z" fill="#00AEEF"/>
<path d="M18.4104 27C18.4104 26.5858 18.0746 26.25 17.6604 26.25C17.2462 26.25 16.9104 26.5858 16.9104 27H18.4104ZM17.3432 29.5609L11.8456 23.6706L10.749 24.6941L16.2466 30.5844L17.3432 29.5609ZM11.8456 23.3294L17.3432 17.4391L16.2466 16.4156L10.749 22.3059L11.8456 23.3294ZM16.9104 27V29.7315H18.4104V27H16.9104ZM16.9104 17.2685V20H18.4104V17.2685H16.9104ZM11.8456 23.6706C11.7559 23.5745 11.7559 23.4255 11.8456 23.3294L10.749 22.3059C10.1214 22.9783 10.1214 24.0217 10.749 24.6941L11.8456 23.6706ZM17.3432 17.4391C17.1884 17.605 16.9104 17.4954 16.9104 17.2685H18.4104C18.4104 16.134 17.0207 15.5862 16.2466 16.4156L17.3432 17.4391ZM16.2466 30.5844C17.0207 31.4138 18.4104 30.866 18.4104 29.7315H16.9104C16.9104 29.5046 17.1884 29.395 17.3432 29.5609L16.2466 30.5844Z" fill="#00AEEF"/>
<path d="M27.6602 20V24C27.6602 25.6569 26.3171 27 24.6602 27H17.6602" stroke="#00AEEF" stroke-width="1.5"/>
<path d="M17.6602 20H23.6602" stroke="#00AEEF" stroke-width="1.5" stroke-linecap="round"/>
</svg>
