<svg width="40" height="40" viewBox="0 0 40 40" fill="none" xmlns="http://www.w3.org/2000/svg">
<rect width="40" height="40" rx="20" fill="#EDF9FF"/>
<path d="M22 10H18C15.7909 10 14 11.7909 14 14V26C14 28.2091 15.7909 30 18 30H22C24.2091 30 26 28.2091 26 26V14C26 11.7909 24.2091 10 22 10Z" stroke="#00AEEF" stroke-width="1.5"/>
<path d="M20 28C20.5523 28 21 27.5523 21 27C21 26.4477 20.5523 26 20 26C19.4477 26 19 26.4477 19 27C19 27.5523 19.4477 28 20 28Z" fill="#00AEEF"/>
<path d="M18 13H22" stroke="#00AEEF" stroke-width="1.5" stroke-linecap="round"/>
</svg>
