<svg width="40" height="40" viewBox="0 0 40 40" fill="none" xmlns="http://www.w3.org/2000/svg">
<rect width="40" height="40" rx="20" fill="#EDF9FF"/>
<path d="M23 20H15C14.0707 20 13.606 20 13.2196 20.0769C11.6329 20.3925 10.3925 21.6329 10.0769 23.2196C10 23.606 10 24.0707 10 25C10 25.9293 10 26.394 10.0769 26.7804C10.3925 28.3671 11.6329 29.6075 13.2196 29.9231C13.606 30 14.0707 30 15 30H25C25.9293 30 26.394 30 26.7804 29.9231C28.3671 29.6075 29.6075 28.3671 29.9231 26.7804C30 26.394 30 25.9293 30 25V22.5C30 21.1193 28.8807 20 27.5 20" stroke="#00AEEF" stroke-width="1.5" stroke-linecap="round"/>
<path d="M10 24V18C10 15.7909 11.7909 14 14 14H23" stroke="#00AEEF" stroke-width="1.5"/>
<path d="M22.25 14C22.25 14.4142 22.5858 14.75 23 14.75C23.4142 14.75 23.75 14.4142 23.75 14H22.25ZM23.3232 11.3839L28.7626 16.8232L29.8232 15.7625L24.3839 10.3232L23.3232 11.3839ZM28.7626 17.1768L23.3232 22.6161L24.3839 23.6768L29.8232 18.2374L28.7626 17.1768ZM23.75 14V11.2071H22.25V14H23.75ZM23.75 22.7929V20H22.25V22.7929H23.75ZM28.7626 16.8232C28.8602 16.9209 28.8602 17.0791 28.7626 17.1768L29.8232 18.2374C30.5066 17.554 30.5066 16.446 29.8232 15.7625L28.7626 16.8232ZM23.3232 22.6161C23.4807 22.4586 23.75 22.5702 23.75 22.7929H22.25C22.25 23.9065 23.5964 24.4642 24.3839 23.6768L23.3232 22.6161ZM24.3839 10.3232C23.5964 9.53576 22.25 10.0935 22.25 11.2071H23.75C23.75 11.4298 23.4807 11.5414 23.3232 11.3839L24.3839 10.3232Z" fill="#00AEEF"/>
<path d="M27 26C27.5523 26 28 25.5523 28 25C28 24.4477 27.5523 24 27 24C26.4477 24 26 24.4477 26 25C26 25.5523 26.4477 26 27 26Z" fill="#00AEEF"/>
</svg>
