<svg width="41" height="40" viewBox="0 0 41 40" fill="none" xmlns="http://www.w3.org/2000/svg">
<rect x="0.660156" width="40" height="40" rx="20" fill="#EDF9FF"/>
<path d="M27.6602 14H13.6602C12.0033 14 10.6602 15.3431 10.6602 17C10.6602 18.6569 12.0033 20 13.6602 20H27.6602C29.317 20 30.6602 18.6569 30.6602 17C30.6602 15.3431 29.317 14 27.6602 14Z" stroke="#00AEEF" stroke-width="1.5"/>
<path d="M16.6602 14C16.6602 12 17.8602 10 20.6602 10C23.4602 10 24.6602 12 24.6602 14" stroke="#00AEEF" stroke-width="1.5" stroke-linecap="round"/>
<path d="M11.6602 19V21C11.6602 23.7956 11.6602 25.1935 12.1169 26.2961C12.7258 27.7663 13.8939 28.9343 15.3641 29.5433C16.4667 30 17.8645 30 20.6602 30C23.4558 30 24.8537 30 25.9563 29.5433C27.4265 28.9343 28.5945 27.7663 29.2035 26.2961C29.6602 25.1935 29.6602 23.7956 29.6602 21V19" stroke="#00AEEF" stroke-width="1.5"/>
<path d="M16.6602 18.5V21.5" stroke="#00AEEF" stroke-width="1.5" stroke-linecap="round"/>
<path d="M24.6602 18.5V21.5" stroke="#00AEEF" stroke-width="1.5" stroke-linecap="round"/>
</svg>
