<svg width="41" height="40" viewBox="0 0 41 40" fill="none" xmlns="http://www.w3.org/2000/svg">
<rect x="0.660156" width="40" height="40" rx="20" fill="#EDF9FF"/>
<path d="M10.6602 14V23.6C10.6602 25.8402 10.6602 26.9603 11.0961 27.816C11.4796 28.5686 12.0915 29.1805 12.8442 29.564C13.6998 30 14.8199 30 17.0602 30H24.2602C26.5004 30 27.6205 30 28.4762 29.564C29.2288 29.1805 29.8407 28.5686 30.2242 27.816C30.6602 26.9603 30.6602 25.8402 30.6602 23.6V18C30.6602 15.7909 28.8693 14 26.6602 14M10.6602 14C10.6602 11.7909 12.451 10 14.6602 10H20.0092C20.9876 10 21.4768 10 21.9371 10.1105C22.3453 10.2085 22.7355 10.3701 23.0933 10.5894C23.497 10.8368 23.8429 11.1827 24.5347 11.8745L26.6602 14M10.6602 14H26.6602" stroke="#00AEEF" stroke-width="1.5" stroke-linecap="round"/>
<path d="M26.6602 24C27.7647 24 28.6602 23.1046 28.6602 22C28.6602 20.8954 27.7647 20 26.6602 20C25.5556 20 24.6602 20.8954 24.6602 22C24.6602 23.1046 25.5556 24 26.6602 24Z" fill="#00AEEF"/>
</svg>
