<svg width="24" height="24" viewBox="0 0 24 24" fill="none" xmlns="http://www.w3.org/2000/svg">
<path d="M14 2H10C7.79086 2 6 3.79086 6 6V18C6 20.2091 7.79086 22 10 22H14C16.2091 22 18 20.2091 18 18V6C18 3.79086 16.2091 2 14 2Z" stroke="#00AEEF" stroke-width="1.5"/>
<path d="M12 20C12.5523 20 13 19.5523 13 19C13 18.4477 12.5523 18 12 18C11.4477 18 11 18.4477 11 19C11 19.5523 11.4477 20 12 20Z" fill="#00AEEF"/>
<path d="M10 5H14" stroke="#00AEEF" stroke-width="1.5" stroke-linecap="round"/>
</svg>
